<?xml version="1.0" encoding="UTF-8"?>
<svg width="168px" height="42px" viewBox="0 0 168 42" version="1.1" xmlns="http://www.w3.org/2000/svg" xmlns:xlink="http://www.w3.org/1999/xlink">
    <!-- Generator: Sketch 58 (84663) - https://sketch.com -->
    <title>LOGO </title>
    <desc>Created with Sketch.</desc>
    <g id="LOGO-" stroke="none" stroke-width="1" fill="none" fill-rule="evenodd">
        <path d="M41.6525191,6.96904817 L50.2028298,15.364363 L47.8814035,34.8951465 C47.4885616,38.1111413 44.5666672,40.3684539 41.4033662,39.950085 L41.1873393,39.9173935 L19.9979767,36.3066848 C18.140783,35.9901484 16.848827,34.2942031 17.0031401,32.4254437 L17.0242988,32.2315568 L19.4604414,14.280806 C19.770991,11.991039 21.4930367,10.1647059 23.7277218,9.72075248 L23.960688,9.67979514 L41.6525191,6.96904817 Z M39.9270387,9.81225932 L24.3111515,11.7777628 C23.214098,11.9159362 22.3328933,12.7396031 22.1053972,13.8160562 L22.0749731,13.9880601 L19.483332,32.1232011 C19.3442592,33.0991467 19.981035,34.0066075 20.9218158,34.2134856 L21.065154,34.2391839 L41.3573089,37.0662344 C42.8425399,37.2731337 44.2121235,36.2620137 44.4802277,34.7974644 L44.5062185,34.6265092 L46.6729357,16.7629198 L39.9270387,9.81225932 Z M64.2323959,26.5571887 C64.5040577,26.8090915 64.7759023,27.1331136 64.9570285,27.4144221 L65.0540908,27.5771629 L69.2678098,27.5771629 L69.2678098,28.6445593 L62.0275276,28.6445593 C62.3696374,28.9751237 62.7522375,29.3854025 62.9736822,29.7105156 L63.0581325,29.8441549 L62.1317195,30.1464382 L65.1585458,30.1464382 C65.4602962,29.7901474 65.7910426,29.2812578 66.0190607,28.8576768 L66.1238992,28.6540967 L67.8588516,29.041422 C67.5849533,29.3317172 67.303655,29.6221615 67.0425957,29.888725 L66.7893063,30.1464382 L69.5419712,30.1464382 L69.5419712,31.2421819 L60.4620186,31.2421819 L60.4620186,31.478233 C60.4620186,32.6494813 60.2139051,34.4252961 59.0135938,35.5303123 C58.752851,35.313071 58.0613959,34.869316 57.7093537,34.7275794 C58.6790871,33.820714 58.8167715,32.5709855 58.8296141,31.6237833 L58.8307318,31.4498857 L58.8307318,30.1464382 L61.5184083,30.1464382 C61.3337922,29.8552377 61.0492306,29.4919179 60.7632378,29.1766777 L60.5922584,28.9942647 L61.7012703,28.6445593 L58.726803,28.6445593 L58.726803,27.5771629 L63.2146834,27.5771629 C63.0972702,27.3860171 62.9431531,27.1895065 62.78541,27.0114374 L62.6276833,26.8403972 L64.2323959,26.5571887 Z M132.335461,27.0672288 L132.335461,28.1062779 L131.226449,28.1062779 L131.226449,30.4395019 L132.596467,30.4395019 L132.596467,31.4970959 L131.226449,31.4970959 L131.226449,35.4265134 L129.752239,35.4265134 L129.752239,31.4970959 L128.265137,31.4970959 C128.186993,32.8855855 127.80864,34.4629689 126.46467,35.4924805 C126.203928,35.2943141 125.642712,34.9824934 125.290407,34.8407568 C126.346565,34.0139309 126.697462,32.8024695 126.800457,31.7020102 L126.816976,31.4970959 L125.603772,31.4970959 L125.603772,30.4395019 L126.843024,30.4395019 L126.843024,28.1062779 L125.942922,28.1062779 L125.942922,27.0672288 L132.335461,27.0672288 Z M98.0493125,26.5854831 L98.0493125,27.9363528 L100.971421,27.9363528 L100.971421,28.9751369 L98.0493125,28.9751369 L98.0493125,30.1087654 L99.6145585,30.1087654 L99.8887199,30.0616081 L100.880121,30.3636264 C100.384421,31.6766114 99.549307,32.706123 98.4537138,33.4995834 C99.3017198,33.9340659 100.306277,34.2456217 101.467121,34.4535904 C101.141127,34.6803691 100.697522,35.1339265 100.475457,35.4264074 C99.2101573,35.1527364 98.1274564,34.7654111 97.2270914,34.2363492 C96.2096421,34.7463363 95.0614267,35.1241241 93.796127,35.39806 C93.6264205,35.0960417 93.2483304,34.6236745 92.9610134,34.3778209 C94.1089657,34.1796545 95.1658816,33.8776362 96.0791391,33.4521612 C95.40574,32.8985934 94.8519987,32.2582119 94.4092784,31.5244499 L94.2263131,31.2042441 L94.618085,31.1192021 L93.9397855,31.1192021 L93.9397855,30.1087654 L96.5093252,30.1087654 L96.5093252,28.9751369 L93.7045644,28.9751369 L93.7045644,27.9363528 L96.5093252,27.9363528 L96.5093252,26.5854831 L98.0493125,26.5854831 Z M163.817138,31.1003922 L163.817138,32.1015565 L161.768821,32.1015565 L161.768821,34.0379179 C161.768821,34.2731742 161.789402,34.3292475 161.92222,34.3388038 L161.977468,34.340466 L162.44712,34.340466 C162.642875,34.340466 162.708126,34.1796545 162.734437,33.2161101 C163.021491,33.3957315 163.621384,33.5562781 164,33.6317827 C163.88827,34.861249 163.55333,35.2466999 162.736886,35.2821713 L162.603934,35.2849356 L161.703569,35.2849356 C160.613015,35.2849356 160.323166,34.99491 160.296908,34.1643199 L160.294874,34.0286454 L160.294874,32.1015565 L159.433713,32.1015565 C159.237958,33.6887423 158.637803,34.784221 156.10694,35.4171349 C155.963545,35.1339265 155.559143,34.7275264 155.245779,34.5102851 C157.240361,34.0652564 157.751296,33.3407499 157.927055,32.2359627 L157.946611,32.1015565 L156.380838,32.1015565 L156.380838,31.1003922 L163.817138,31.1003922 Z M111.735256,26.6041605 L111.735256,28.9093022 L116.497035,28.9093022 L116.497035,30.0140535 L112.387508,30.0140535 C113.522567,31.2986911 115.361975,32.6212134 117.057987,33.3863266 C116.653586,33.6223777 116.092633,34.0852076 115.80558,34.3970282 C114.490157,33.6869319 113.141793,32.6117496 112.031852,31.455536 L111.735256,31.1384094 L111.735256,35.4172674 L110.026088,35.4172674 L110.026088,31.5442797 C108.878136,32.7629501 107.416819,33.8017342 105.812369,34.4722679 C105.538471,34.179787 105.016459,33.7169571 104.638106,33.480641 C106.523178,32.8028218 108.303579,31.5687299 109.397034,30.2479387 L109.582747,30.0140535 L105.146699,30.0140535 L105.146699,28.9093022 L110.026088,28.9093022 L110.026088,26.6041605 L111.735256,26.6041605 Z M142.003519,30.2881218 L142.003519,31.1003922 L145.473687,31.1003922 L145.473687,33.8397514 C145.473687,34.1201516 145.505228,34.186389 145.711209,34.1968325 L145.786525,34.1984644 L146.504292,34.1984644 C146.778453,34.1984644 146.830286,34.0191079 146.869752,32.8475947 C147.208902,33.046291 147.874046,33.2351849 148.304495,33.3202269 C148.167335,34.7836681 147.803407,35.2276089 146.801695,35.2634461 L146.661106,35.2658608 L145.499735,35.2658608 C144.316813,35.2658608 143.906317,34.9732945 143.871444,33.9936846 L143.868974,33.8490239 L143.868974,32.1394412 L141.964052,32.1394412 C141.794872,33.3769216 140.85504,34.6803691 137.267525,35.39806 C137.019675,35.1053142 136.550022,34.7084515 136.171669,34.4631279 C139.110063,33.887677 140.049105,33.0389189 140.308796,32.2236476 L140.333292,32.1394412 L137.254633,32.1394412 L137.254633,31.1003922 L140.398543,31.1003922 L140.398543,30.2881218 L142.003519,30.2881218 Z M155.311004,26.9162197 L156.328453,27.3411647 C155.989303,28.1343603 155.559117,29.0790948 155.193656,29.8158606 C155.976411,30.5526263 156.146117,31.22316 156.146117,31.7710318 C156.146117,32.3848709 155.976411,32.791271 155.559117,33.0177847 C155.3631,33.131439 155.115249,33.1881336 154.81504,33.2257535 C154.580608,33.2541008 154.280136,33.2541008 153.980453,33.2445634 C153.980453,32.9706275 153.849686,32.5549549 153.64104,32.2810189 C153.862842,32.2902914 154.058596,32.3000938 154.201992,32.2902914 C154.332495,32.2902914 154.450105,32.2717464 154.55456,32.2150518 C154.710848,32.1300098 154.776099,31.9223059 154.776099,31.64837 C154.776099,31.1948127 154.619285,30.5902462 153.875734,29.9197125 C154.093239,29.4474777 154.310744,28.8374433 154.497949,28.2866192 L154.606393,27.9648061 L153.563159,27.9648061 L153.563159,35.3886286 L152.20577,35.3886286 L152.20577,26.9633769 L155.089201,26.9633769 L155.311004,26.9162197 Z M92.2565869,26.5949145 L92.2565869,28.3898042 L93.5353053,28.3898042 L93.5353053,29.4285883 L92.2565869,29.4285883 L92.2565869,30.8266152 L93.4568983,30.609109 L93.6526527,31.6386207 L92.9596518,31.7791651 L92.2565869,31.9125566 L92.2565869,34.1702761 C92.2565869,34.7181479 92.1131916,34.9825464 91.6695868,35.1619029 C91.2388745,35.3319869 90.6126709,35.3603342 89.6996765,35.3603342 C89.634425,35.0768609 89.4386706,34.6331059 89.2558086,34.3403601 C89.5386527,34.3456586 89.8293739,34.3480136 90.0610665,34.3490602 L90.4695386,34.3498975 C90.6371026,34.3498975 90.6995081,34.3150567 90.7139186,34.2158453 L90.7173889,34.1607386 L90.7173889,32.2151048 L89.451563,32.4416185 L89.0471618,31.3744871 C89.4331979,31.3215014 89.8695829,31.2503734 90.3494464,31.1659863 L90.7173889,31.1002862 L90.7173889,29.4285883 L89.2168682,29.4285883 L89.2168682,28.3898042 L90.7173889,28.3898042 L90.7173889,26.5949145 L92.2565869,26.5949145 Z M78.6876752,26.7177088 L78.6876752,33.8585878 L80.3968427,33.8585878 L80.3968427,26.7177088 L82.0015553,26.7177088 L82.0015553,31.9224914 C82.5885817,31.1146718 83.2815287,29.9474107 83.7280453,28.936952 L83.8672738,28.606648 L85.2630764,29.0885527 C84.7463795,30.1596051 84.0291369,31.3454642 83.396375,32.233019 L83.1889742,32.5172556 L82.0015553,32.082773 L82.0015553,33.8585878 L85.3806869,33.8585878 L85.3806869,34.9824139 L73.7175128,34.9824139 L73.7175128,33.8585878 L77.0832257,33.8585878 L77.0832257,26.7177088 L78.6876752,26.7177088 Z M125.316455,27.0391464 L125.316455,28.0591206 L123.398641,28.0591206 C123.263086,28.5652397 123.085939,29.0776324 122.873396,29.5717471 L122.707449,29.9385224 L125.147012,29.9385224 L125.147012,34.2833475 L122.655353,34.2833475 L122.655353,34.972956 L121.363479,34.972956 L121.363479,32.0356953 C121.194035,32.2150518 121.0117,32.3944083 120.828838,32.5549549 C120.776479,32.2529365 120.515736,31.5347158 120.306826,31.2136226 C121.03641,30.504012 121.546456,29.4843009 121.877901,28.366306 L121.963898,28.0591206 L120.580987,28.0591206 L120.580987,27.0391464 L125.316455,27.0391464 Z M123.829616,30.9301492 L122.655353,30.9301492 L122.655353,33.2917206 L123.829616,33.2917206 L123.829616,30.9301492 Z M98.910211,31.1192021 L95.7397262,31.1192021 C96.1054502,31.7428435 96.6271988,32.3095252 97.2794504,32.791165 C97.9580131,32.3187977 98.5187022,31.7616534 98.910211,31.1192021 Z M38.8287091,22.6080606 L37.5736708,32.7179918 L27.8467288,32.0861376 L29.1017671,22.6080606 L38.8287091,22.6080606 Z M75.2957564,28.5784597 C75.8579583,29.5913912 76.5406522,30.921992 76.9018316,31.8280876 L76.9920315,32.0641221 L75.4394149,32.4604549 C75.1762822,31.6294188 74.5843944,30.2901563 74.0253011,29.1779038 L73.8739058,28.8807429 L75.2957564,28.5784597 Z M38.0618538,5.71353745 L38.0610572,5.90400967 L38.0442181,6.49506484 L34.9066222,6.96902167 L34.9263555,6.81059451 C35.0662883,5.68263553 34.1242625,4.73462097 33.02536,4.8473947 L32.887247,4.86708007 L15.7737333,7.98873093 C14.5163144,8.21783088 13.5266599,9.18464518 13.2520667,10.4287174 L13.2162966,10.6173501 L10.6743835,26.6139894 C10.5474033,27.4126601 11.0423471,28.1692677 11.8030233,28.3783066 L11.9399463,28.4094089 L16.5509625,29.2426086 L16.2373345,31.2963332 L11.2687507,30.2956988 C9.71500645,29.9827522 8.65913052,28.5403237 8.80108315,26.9703776 L8.82182057,26.7954653 L11.2000788,10.6033089 C11.4833419,8.6738651 12.8640361,7.09941076 14.7141516,6.56883381 L14.9296739,6.51228518 L33.4271503,2.10387728 C35.7749349,1.54423989 38.0138107,3.31691474 38.0618538,5.71353745 Z M143.764545,28.6444268 C144.884426,29.0019578 146.404932,29.5687478 147.31949,30.0178589 L147.534923,30.1274958 L146.399863,30.7980295 C145.685235,30.3773611 144.216959,29.7689207 142.99736,29.3362758 L142.720785,29.2397209 L143.764545,28.6444268 Z M140.515917,28.6636871 L141.742539,29.1829467 C140.720749,29.7694981 139.36095,30.3330881 138.167406,30.6809703 L137.776407,30.7886775 L136.784743,29.9859446 C137.945851,29.7212811 139.446372,29.2303689 140.515917,28.6636871 Z M129.752239,28.1065428 L128.290922,28.1065428 L128.290922,30.4395019 L129.752239,30.4395019 L129.752239,28.1065428 Z M160.307556,26.5005471 C160.565104,26.8161903 160.822072,27.21514 160.980537,27.5429065 L161.051107,27.7001427 L163.751939,27.7001427 L163.751939,29.5609995 L162.721334,29.5609995 L162.721334,30.4016172 L157.3594,30.4016172 L157.3594,29.5609995 L156.341951,29.5609995 L156.341951,27.7001427 L159.368514,27.7001427 C159.260967,27.4734302 159.123969,27.2361372 158.979607,27.0160935 L158.83361,26.8028303 L160.307556,26.5005471 Z M162.264837,28.6636871 L157.776694,28.6636871 L157.776694,29.4285353 L162.264837,29.4285353 L162.264837,28.6636871 Z M142.577495,26.5004676 C142.765251,26.7575541 142.970014,27.0627939 143.124294,27.334123 L143.229483,27.5299792 L147.834974,27.5299792 L147.834974,29.2962566 L146.191321,29.2962566 L146.191321,28.5027961 L138.063303,28.5027961 L138.063303,29.390836 L136.497794,29.390836 L136.497794,27.5299792 L141.324825,27.5299792 C141.237823,27.3600718 141.150938,27.1900467 141.060116,27.0283815 L140.920423,26.7932134 L142.577495,26.5004676 Z M113.365964,26.6799565 C113.980591,27.0240102 114.852793,27.5104056 115.387174,27.8793923 L115.570569,28.0117514 L114.370521,28.7768645 C113.947833,28.4368555 113.123628,27.905645 112.439954,27.4997776 L112.218012,27.3695651 L113.365964,26.6799565 Z M28.0034639,22.6079812 L27.2193938,28.1367711 L22.1989772,27.9788738 L22.9833104,22.6079812 L28.0034639,22.6079812 Z M137.287442,6.47233398 L137.287442,6.67606389 C137.287442,7.15405142 137.643622,7.54660497 138.103819,7.60024533 L138.211751,7.60649229 L142.45257,7.60649229 L142.45257,8.98650412 L141.803476,8.98650412 L141.803476,13.8985408 C141.803476,15.5781866 140.907847,17.6878112 139.512044,19.344938 C140.253911,20.1762479 141.179137,20.7292346 142.226328,20.7992715 L142.45257,20.8068127 L142.45257,22.096484 L141.595881,22.096484 C140.306902,22.096484 139.087909,21.5817282 138.028889,20.7729019 C137.048688,21.5239549 135.939855,22.0214471 134.78581,22.0886855 L134.518728,22.096484 L133.706768,22.096484 L133.706768,20.8182047 L133.737552,20.8182047 C134.698169,20.8182047 135.675626,20.2157576 136.498373,19.2771164 C135.225341,17.7200588 134.405492,15.7846697 134.318327,14.1784335 L134.310607,13.8985408 L134.310607,9.65094444 L137.588178,9.65094444 L137.588178,13.9578848 C137.588178,14.8599658 137.73973,15.7845658 138.023363,16.6498218 C138.298709,15.8904047 138.474944,15.0873779 138.5147,14.2961155 L138.523274,13.9578848 L138.523274,8.98650412 L135.670101,8.98650412 C134.964345,8.98650412 134.382813,8.4453389 134.31684,7.75218579 L134.310607,7.62053349 L134.310607,6.47233398 L137.287442,6.47233398 Z M127.143549,12.7192122 L127.143549,13.4035222 L133.437158,13.4035222 L133.437158,14.6590177 L127.143549,14.6590177 L127.143549,15.4085 C127.143549,16.5055684 127.522428,17.523688 128.177048,18.3749029 C128.776875,17.5946226 129.147656,16.6740959 129.205288,15.6810714 L129.213178,15.4085 L129.213178,15.012697 L132.566525,15.012697 L132.566525,16.6642604 C132.566525,18.0863959 131.926376,19.3789813 130.876038,20.3430556 C131.559107,20.6029172 132.306637,20.7631865 133.094306,20.7991935 L133.434264,20.8069452 L133.434264,22.0624407 L130.095125,22.0624407 C129.426824,22.0624407 128.783518,21.9721001 128.179679,21.8081095 C127.676699,21.9447683 127.146129,22.0302813 126.596343,22.0549896 L126.264233,22.0624407 L122.683558,22.0624407 L122.683558,20.8069452 L122.919569,20.8069452 C123.8323,20.8069452 124.700039,20.6400403 125.480952,20.3404064 C124.498726,19.4363383 123.874707,18.2440055 123.800541,16.9288748 L123.793096,16.6642604 L123.793096,14.6590177 L122.686452,14.6590177 L122.686452,13.4035222 L123.793096,13.4035222 L123.793096,12.7192122 L127.143549,12.7192122 Z M97.9127317,6.7862476 C98.5391985,6.7862476 99.0475285,7.29808919 99.0475285,7.92888361 L99.0475285,7.92888361 L99.0475285,9.86868906 L96.1688336,9.86868906 L96.1688336,8.19752097 L94.8880104,8.19752097 L94.882485,10.2787982 L99.0475285,10.2787982 L99.0475285,20.0207438 C99.0475285,20.6427956 98.5418296,21.5083165 97.9240455,21.5024881 L97.9240455,21.5024881 L96.5198233,21.4913611 L95.4189679,21.4913611 L95.4189679,20.1367824 L95.6547151,20.1367824 C95.9383485,20.1367824 96.1688336,19.9049701 96.1688336,19.6193773 L96.1688336,19.6193773 L96.1688336,11.6333769 L94.8795908,11.6333769 L94.8517011,22.0397628 L91.4507313,22.0397628 L91.4844095,7.77337066 L91.4844095,6.7862476 Z M163.808166,6.47236048 L163.808166,9.46154716 C163.808166,10.0394089 163.372688,10.5164189 162.814483,10.5774519 L162.693103,10.5840486 L155.247857,10.5840486 L155.247857,20.8153169 C155.247857,21.3378314 154.891904,21.8482388 154.411727,21.9931533 L154.298817,22.0199462 L154.298817,22.0398158 L150.36952,22.0398158 L150.36952,20.4279917 L150.754451,20.4279917 C151.107064,20.4279917 151.398214,20.1641948 151.44429,19.8196449 L151.450642,19.7238121 L151.450642,6.47236048 L163.808166,6.47236048 Z M112.722132,6.47246645 L112.722132,7.62040103 L121.169829,7.61218825 L121.169829,8.99484936 L112.317731,8.99484936 L111.640747,10.1629185 L116.238081,10.2193482 L122.273316,22.0399218 L117.288419,22.0399218 L112.143288,11.5429303 L110.842995,11.5429303 L105.265573,21.1831435 C105.089288,21.5121363 104.762314,21.9510416 104.396139,22.0281236 L104.285222,22.0399218 L99.6992012,22.0399218 L107.871685,8.99484936 L100.822421,8.99484936 L100.822421,7.62040103 L108.146899,7.62040103 L108.146899,6.47246645 L112.722132,6.47246645 Z M150.108251,6.47233398 L150.108251,8.24549949 L150.987568,8.24549949 L150.987568,9.63107481 L150.108251,9.63107481 L150.108251,10.9970454 L151.026771,10.9970454 L151.026771,12.5211783 L150.108251,12.5211783 L150.108251,20.7109087 C150.108251,21.4001364 149.590021,21.9650236 148.925799,22.0329423 L148.791119,22.0397893 L144.078542,22.0397893 L144.078542,20.461876 L145.544595,20.461876 C145.837753,20.461876 146.083172,20.2442798 146.129325,19.9616621 L146.137121,19.8652573 L146.137121,17.0684087 L146.06687,17.2750528 C145.907206,17.7337983 145.497493,18.0547461 145.023776,18.1050517 L144.893133,18.1119615 L143.820167,18.1119615 L143.820167,16.5849144 L144.084067,16.5849144 C144.35396,16.5849144 144.596828,16.4285478 144.710665,16.1872646 L144.747106,16.0929424 L146.137121,11.6275749 L146.137121,9.63107481 L144.078542,9.63107481 L144.078542,8.24549949 L146.137121,8.24549949 L146.137121,6.47233398 L150.108251,6.47233398 Z M72.0216323,6.46955224 L72.1902863,7.58384092 L73.0156648,7.58384092 C73.4176171,7.58384092 73.7525369,7.28022361 73.8016846,6.88636329 L73.8078913,6.78614163 L76.8549771,6.78614163 L76.8549771,7.84400057 C76.8549771,8.42210957 76.4194996,8.89659744 75.8634329,8.95729311 L75.7425448,8.96385274 L72.3868301,8.96385274 L73.420066,15.7139624 C73.6242729,15.6720044 73.778723,15.5085477 73.8141448,15.3016842 L73.8218362,15.2105985 L73.8218362,10.2985618 L76.8549771,10.2985618 L76.8549771,15.6914435 C76.8549771,16.3831549 76.3339716,16.9484303 75.6672353,17.0163877 L75.5320562,17.0232384 L73.6223982,17.0232384 L74.0183799,19.6333126 C74.1102231,20.2272466 74.5907873,20.675788 75.1729936,20.7329538 L75.2992032,20.7391235 L76.8549771,20.7391235 L76.8549771,22.0370076 L71.4206873,22.0370076 C70.5531965,22.0370076 69.8136108,21.42662 69.637251,20.5870384 L69.6120639,20.4365754 L68.1486418,8.96385274 L62.1470852,8.96385274 L62.1470852,10.275778 L66.7949369,10.275778 C67.3715354,10.275778 67.845682,10.7144946 67.9063389,11.276372 L67.9128945,11.3985444 L67.9128945,20.7701202 C67.9128945,21.4250727 67.4140889,21.9654645 66.7824304,22.0304551 L66.6544357,22.0370076 L62.761975,22.0370076 L62.761975,20.6654735 L63.2589913,20.6654735 C63.6738158,20.6654735 64.0168997,20.3546325 64.0672273,19.9509092 L64.0735822,19.8481695 L64.0735822,11.6645324 L62.1470852,11.6645324 L62.1470852,20.7701202 C62.1470852,21.4223407 61.6482796,21.965123 61.014453,22.030423 L60.8859953,22.0370076 L57.7123532,22.0370076 L57.7123532,7.58384092 L67.9128945,7.58384092 L67.7442405,6.46955224 L72.0216323,6.46955224 Z M161.721303,10.9943167 L161.721303,11.7578402 L163.808297,11.7578402 L163.808297,13.1603709 L161.721303,13.1603709 L161.721303,13.9379357 L163.808297,13.9379357 L163.808297,20.8154759 C163.808297,21.3933376 163.50713,21.9566601 162.966833,22.0292015 L162.847417,22.0370606 L155.899451,22.0370606 L155.773158,13.9379357 L158.014072,13.9379357 L158.014072,13.1603709 L155.663704,13.1603709 L155.663704,11.7578402 L158.014072,11.7578402 L158.014072,10.9943167 L161.721303,10.9943167 Z M86.2689752,6.47249294 L86.2689752,7.57830391 L87.4290306,7.57830391 L87.7434479,6.78616812 L91.040489,6.78616812 L89.8467554,10.2787187 L90.7258085,10.2787187 L90.7258085,11.6446893 L84.510869,11.6446893 L84.0306919,12.4082128 L89.6110082,12.4082128 C90.1851509,12.4082128 90.6586755,12.8464679 90.7192603,13.4084991 L90.7258085,13.5307143 L90.7258085,20.9142677 C90.7258085,21.4923767 90.2905601,21.9694032 89.7323849,22.0304373 L89.6110082,22.0370341 L80.0145691,22.0370341 L80.0145691,15.3944853 L80.0227255,14.5517482 L79.1552493,14.5517482 L79.1552493,12.6458536 C79.6606612,12.6458536 80.131499,12.3934053 80.4153522,11.9776808 L80.4947463,11.8481543 L80.6042003,11.6446893 L79.1552493,11.6446893 L79.1552493,10.2787187 L81.8597649,10.2787187 L81.8597649,8.95248731 L79.4188863,8.95248731 L79.4188863,7.57830391 L81.8597649,7.57830391 L81.8597649,6.47249294 L86.2689752,6.47249294 Z M28.7881917,17.0790058 L28.1604094,21.3440874 L24.0814032,21.3440874 L24.5521083,17.2369031 L28.7881917,17.0790058 Z M38.0443233,13.1296657 L37.102913,21.0282399 L29.2585285,21.1861372 L30.3567529,13.7615199 L38.0443233,13.1296657 Z M86.7070546,17.8320911 L84.0306919,17.8320911 L84.0306919,20.6090702 L86.0077062,20.6090702 C86.3629715,20.6090702 86.654564,20.3452733 86.7006956,20.0029681 L86.7070546,19.9078048 L86.7070546,17.8320911 Z M160.471527,15.6657984 L159.266743,15.6657984 L159.266743,20.5582305 L159.744025,20.5582305 C160.112315,20.5582305 160.41671,20.2824124 160.464885,19.9250437 L160.471527,19.8257035 L160.471527,15.6657984 Z M8.70678854,13.9194967 L8.07900624,18.1848433 L4,18.3427406 L4.62751918,14.077394 L8.70678854,13.9194967 Z M86.7070546,13.768355 L84.0306919,13.768355 L84.0306919,16.4661205 L86.7070546,16.4661205 L86.7070546,13.768355 Z M129.949178,6.47236048 L129.949178,7.61208228 L130.578013,7.61208228 L130.772188,6.73543434 L133.302261,6.73543434 L133.086248,7.61208228 L133.57195,7.61208228 L133.57195,8.99500832 L129.949178,8.99500832 L129.949178,9.33438154 L130.395677,9.33438154 L130.395677,9.33146733 L133.052569,9.33146733 L133.437237,12.1932235 L130.929002,12.1932235 L130.547229,10.1516855 L129.949178,10.1516855 L129.949178,11.0733713 C129.949178,11.6514803 129.513471,12.1259682 128.955449,12.1866638 L128.834114,12.1932235 L126.329037,12.1932235 L126.329037,8.99500832 L122.686268,8.99500832 L122.686268,7.61208228 L123.217226,7.61208228 L123.059885,6.73543434 L125.531285,6.73543434 L125.725198,7.61208228 L126.329037,7.61208228 L126.329037,6.47236048 L129.949178,6.47236048 Z M125.859752,9.33152032 L125.382469,11.3081508 C125.281435,11.7830655 124.885816,12.1354045 124.41249,12.1868004 L124.292665,12.1932765 L122.683479,12.1932765 L123.203123,9.33152032 L125.859752,9.33152032 Z M86.9317512,8.95248731 L86.2689752,8.95248731 L86.2689752,10.2787187 L86.4460487,10.2787187 L86.9317512,8.95248731 Z M160.053312,7.7336844 L155.247857,7.7336844 L155.247857,9.20403679 L159.483151,9.20403679 C159.766127,9.20403679 160.001577,8.99566799 160.045837,8.72532502 L160.053312,8.63311618 L160.053312,7.7336844 Z" id="形状结合" fill="#FFFFFF"></path>
    </g>
</svg>