<?xml version="1.0" encoding="UTF-8"?>
<svg width="47px" height="38px" viewBox="0 0 47 38" version="1.1" xmlns="http://www.w3.org/2000/svg" xmlns:xlink="http://www.w3.org/1999/xlink">
    <!-- Generator: Sketch 60 (88103) - https://sketch.com -->
    <title>LOGO</title>
    <desc>Created with Sketch.</desc>
    <g id="页面-1" stroke="none" stroke-width="1" fill="none" fill-rule="evenodd">
        <g id="LOGO" fill="#FFFFFF" fill-rule="nonzero">
            <path d="M37.6525191,4.96904817 L46.2028298,13.364363 L43.8814035,32.8951465 C43.4885616,36.1111413 40.5666672,38.3684539 37.4033662,37.950085 L37.1873393,37.9173935 L15.9979767,34.3066848 C14.140783,33.9901484 12.848827,32.2942031 13.0031401,30.4254437 L13.0242988,30.2315568 L15.4604414,12.280806 C15.770991,9.991039 17.4930367,8.1647059 19.7277218,7.72075248 L19.960688,7.67979514 L37.6525191,4.96904817 Z M35.9270387,7.81225932 L20.3111515,9.7777628 C19.214098,9.9159362 18.3328933,10.7396031 18.1053972,11.8160562 L18.0749731,11.9880601 L15.483332,30.1232011 C15.3442592,31.0991467 15.981035,32.0066075 16.9218158,32.2134856 L17.065154,32.2391839 L37.3573089,35.0662344 C38.8425399,35.2731337 40.2121235,34.2620137 40.4802277,32.7974644 L40.5062185,32.6265092 L42.6729357,14.7629198 L35.9270387,7.81225932 Z M34.8287091,20.6080606 L33.5736708,30.7179918 L23.8467288,30.0861376 L25.1017671,20.6080606 L34.8287091,20.6080606 Z M34.0618538,3.71353745 L34.0610572,3.90400967 L34.0442181,4.49506484 L30.9066222,4.96902167 L30.9263555,4.81059451 C31.0662883,3.68263553 30.1242625,2.73462097 29.02536,2.8473947 L28.887247,2.86708007 L11.7737333,5.98873093 C10.5163144,6.21783088 9.5266599,7.18464518 9.2520667,8.4287174 L9.2162966,8.6173501 L6.6743835,24.6139894 C6.5474033,25.4126601 7.0423471,26.1692677 7.8030233,26.3783066 L7.9399463,26.4094089 L12.5509625,27.2426086 L12.2373345,29.2963332 L7.2687507,28.2956988 C5.71500645,27.9827522 4.65913052,26.5403237 4.80108315,24.9703776 L4.82182057,24.7954653 L7.2000788,8.6033089 C7.4833419,6.6738651 8.8640361,5.09941076 10.7141516,4.56883381 L10.9296739,4.51228518 L29.4271503,0.10387728 C31.7749349,-0.45576011 34.0138107,1.31691474 34.0618538,3.71353745 Z M24.0034639,20.6079812 L23.2193938,26.1367711 L18.1989772,25.9788738 L18.9833104,20.6079812 L24.0034639,20.6079812 Z M24.7881917,15.0790058 L24.1604094,19.3440874 L20.0814032,19.3440874 L20.5521083,15.2369031 L24.7881917,15.0790058 Z M34.0443233,11.1296657 L33.102913,19.0282399 L25.2585285,19.1861372 L26.3567529,11.7615199 L34.0443233,11.1296657 Z M4.70678854,11.9194967 L4.07900624,16.1848433 L0,16.3427406 L0.62751918,12.077394 L4.70678854,11.9194967 Z" id="形状结合"></path>
        </g>
    </g>
</svg>